<svg width="32" height="32" viewBox="0 0 32 32" fill="none" xmlns="http://www.w3.org/2000/svg">
<g clip-path="url(#clip0_1182_4782)">
<path d="M21.5825 15.3548C22.1926 15.6523 22.1926 16.5217 21.5825 16.8191L12.5611 21.2176C12.0201 21.4814 11.3896 21.0874 11.3896 20.4855V11.6885C11.3896 11.0865 12.0201 10.6925 12.5611 10.9563L21.5825 15.3548Z" fill="url(#paint0_linear_1182_4782)"/>
<path d="M26.8787 5.00936C26.8787 5.97335 26.0972 6.75482 25.1333 6.75482C24.1693 6.75482 23.3878 5.97335 23.3878 5.00936C23.3878 4.04537 24.1693 3.26391 25.1333 3.26391C26.0972 3.26391 26.8787 4.04537 26.8787 5.00936Z" fill="url(#paint1_linear_1182_4782)"/>
<path d="M8.61221 26.814C8.61221 27.778 7.83074 28.5594 6.86675 28.5594C5.90277 28.5594 5.1213 27.778 5.1213 26.814C5.1213 25.85 5.90277 25.0685 6.86675 25.0685C7.83074 25.0685 8.61221 25.85 8.61221 26.814Z" fill="url(#paint2_linear_1182_4782)"/>
<path fill-rule="evenodd" clip-rule="evenodd" d="M20.9224 2.66354C21.5449 1.96822 21.2933 0.868175 20.3957 0.612638C14.9932 -0.925389 8.94009 0.432495 4.68629 4.68629C0.322912 9.04967 -0.99343 15.3062 0.73727 20.8119C1.0172 21.7024 2.12401 21.9237 2.80205 21.2821C3.1975 20.9079 3.325 20.3353 3.17035 19.8134C1.82149 15.2605 2.94392 10.1313 6.53763 6.53763C10.0397 3.03554 14.9999 1.88033 19.464 3.072C19.9901 3.21244 20.5591 3.06924 20.9224 2.66354ZM10.7179 29.1979C11.0921 28.8025 11.6647 28.675 12.1866 28.8297C16.7395 30.1785 21.8687 29.0561 25.4624 25.4624C28.9645 21.9603 30.1197 17.0001 28.928 12.536C28.7876 12.0099 28.9308 11.4409 29.3365 11.0777C30.0318 10.4551 31.1318 10.7067 31.3874 11.6043C32.9254 17.0068 31.5675 23.0599 27.3137 27.3137C22.9503 31.6771 16.6938 32.9934 11.1881 31.2627C10.2976 30.9828 10.0763 29.876 10.7179 29.1979Z" fill="url(#paint3_linear_1182_4782)"/>
</g>
<defs>
<linearGradient id="paint0_linear_1182_4782" x1="3.33333" y1="3.33333" x2="16" y2="16" gradientUnits="userSpaceOnUse">
<stop stop-color="#4FF1FF"/>
<stop offset="1" stop-color="#0A64FF"/>
</linearGradient>
<linearGradient id="paint1_linear_1182_4782" x1="3.33333" y1="3.33333" x2="16" y2="16" gradientUnits="userSpaceOnUse">
<stop stop-color="#4FF1FF"/>
<stop offset="1" stop-color="#0A64FF"/>
</linearGradient>
<linearGradient id="paint2_linear_1182_4782" x1="3.33333" y1="3.33333" x2="16" y2="16" gradientUnits="userSpaceOnUse">
<stop stop-color="#4FF1FF"/>
<stop offset="1" stop-color="#0A64FF"/>
</linearGradient>
<linearGradient id="paint3_linear_1182_4782" x1="3.33333" y1="3.33333" x2="16" y2="16" gradientUnits="userSpaceOnUse">
<stop stop-color="#4FF1FF"/>
<stop offset="1" stop-color="#0A64FF"/>
</linearGradient>
<clipPath id="clip0_1182_4782">
<rect width="32" height="32" fill="white"/>
</clipPath>
</defs>
</svg>
